<mxfile host="app.diagrams.net" modified="2023-12-10T18:16:15.872Z" agent="Mozilla/5.0 (Windows NT 10.0; Win64; x64) AppleWebKit/537.36 (KHTML, like Gecko) Chrome/120.0.0.0 Safari/537.36" version="22.1.7" etag="J6C0E_CHMxOi1vfa3gxc" type="github">
  <diagram name="PÃ¡gina-1" id="DP5Z0dK5lgx4HPDZlALN">
    <mxGraphModel>
      <root>
        <mxCell id="0" />
        <mxCell id="1" parent="0" />
      </root>
    </mxGraphModel>
  </diagram>
</mxfile>
